# xmcd
#
# Track frame offsets: 
#        150
#        16344
#        31668
#        52517
#        73927
#        88804
#        106336
#        126480
#        150084
#
# Disc length: 2270 seconds
#
# Revision: 0
# Processed by: cddbd v1.5.2PL0 Copyright (c) Steve Scherf et al.
# Submitted via: ExactAudioCopyFreeDBPlugin 1.0
#
DISCID=6408dc09
DTITLE=Bootleg Flyer - Saving Grace
DYEAR=2013
DGENRE=Country
TTITLE0=freeway
TTITLE1=say you'll be by
TTITLE2=hit the road
TTITLE3=since you've been gone
TTITLE4=cowgirl
TTITLE5=ba ba ba
TTITLE6=good as gone
TTITLE7=the truth
TTITLE8=saving grace
EXTD=
EXTT0=
EXTT1=
EXTT2=
EXTT3=
EXTT4=
EXTT5=
EXTT6=
EXTT7=
EXTT8=
PLAYORDER=
